<?xml version="1.0" encoding="UTF-8" standalone="no"?>
<!-- Created with Inkscape (http://www.inkscape.org/) -->

<svg
   xmlns:dc="http://purl.org/dc/elements/1.1/"
   xmlns:cc="http://creativecommons.org/ns#"
   xmlns:rdf="http://www.w3.org/1999/02/22-rdf-syntax-ns#"
   xmlns:svg="http://www.w3.org/2000/svg"
   xmlns="http://www.w3.org/2000/svg"
   xmlns:xlink="http://www.w3.org/1999/xlink"
   xmlns:sodipodi="http://sodipodi.sourceforge.net/DTD/sodipodi-0.dtd"
   xmlns:inkscape="http://www.inkscape.org/namespaces/inkscape"
   width="210mm"
   height="297mm"
   viewBox="0 0 210 297"
   version="1.1"
   id="svg8"
   inkscape:version="0.92.3 (2405546, 2018-03-11)"
   sodipodi:docname="logo.svg">
  <defs
     id="defs2">
    <linearGradient
       inkscape:collect="always"
       id="linearGradient1082">
      <stop
         style="stop-color:#0d7bd4;stop-opacity:1"
         offset="0"
         id="stop1078" />
      <stop
         style="stop-color:#00d47d;stop-opacity:1"
         offset="1"
         id="stop1080" />
    </linearGradient>
    <linearGradient
       inkscape:collect="always"
       xlink:href="#linearGradient1082"
       id="linearGradient1084"
       x1="-456.93903"
       y1="372.77634"
       x2="-456.93903"
       y2="307.81381"
       gradientUnits="userSpaceOnUse" />
    <linearGradient
       gradientTransform="translate(796.78501,126.03826)"
       inkscape:collect="always"
       xlink:href="#linearGradient1082"
       id="linearGradient1084-7"
       x1="-456.93903"
       y1="372.77634"
       x2="-456.93903"
       y2="307.81381"
       gradientUnits="userSpaceOnUse" />
    <linearGradient
       inkscape:collect="always"
       xlink:href="#linearGradient1082"
       id="linearGradient1174"
       gradientUnits="userSpaceOnUse"
       gradientTransform="translate(796.78501,126.03826)"
       x1="-456.93903"
       y1="372.77634"
       x2="-456.93903"
       y2="307.81381" />
  </defs>
  <sodipodi:namedview
     id="base"
     pagecolor="#ffffff"
     bordercolor="#666666"
     borderopacity="1.0"
     inkscape:pageopacity="0.0"
     inkscape:pageshadow="2"
     inkscape:zoom="0.175"
     inkscape:cx="-554.9307"
     inkscape:cy="46.266697"
     inkscape:document-units="mm"
     inkscape:current-layer="layer1"
     showgrid="false"
     showguides="true"
     inkscape:guide-bbox="true"
     inkscape:snap-bbox="true"
     inkscape:bbox-paths="true"
     inkscape:bbox-nodes="true"
     inkscape:snap-bbox-edge-midpoints="true"
     inkscape:snap-bbox-midpoints="true"
     inkscape:window-width="1920"
     inkscape:window-height="1024"
     inkscape:window-x="0"
     inkscape:window-y="28"
     inkscape:window-maximized="1" />
  <metadata
     id="metadata5">
    <rdf:RDF>
      <cc:Work
         rdf:about="">
        <dc:format>image/svg+xml</dc:format>
        <dc:type
           rdf:resource="http://purl.org/dc/dcmitype/StillImage" />
        <dc:title></dc:title>
      </cc:Work>
    </rdf:RDF>
  </metadata>
  <g
     inkscape:label="Layer 1"
     inkscape:groupmode="layer"
     id="layer1">
    <g
       id="g1178"
       transform="translate(-249.46429,-319.0119)">
      <path
         inkscape:export-ydpi="100"
         inkscape:export-xdpi="100"
         sodipodi:nodetypes="cscccsccssscscsccccsccsscccccccccccccccccc"
         inkscape:connector-curvature="0"
         id="path1016"
         d="m 361.7732,498.23951 c 12.94876,-2.78295 22.63665,-12.47144 25.40575,-25.40733 1.02926,-4.80821 0.85576,-9.55797 -0.54395,-14.89168 -1.31964,-3.91466 -3.36784,-8.10428 -4.7033,-10.09446 -2.90072,-4.31272 -7.69804,-8.43705 -12.48559,-10.73407 -3.89953,-1.87095 -3.57187,-2.02352 -3.57187,1.66324 v 3.15264 l 1.12448,0.50064 c 3.66699,1.6326 8.29976,5.70895 10.69327,9.40894 5.26078,8.13233 5.69246,18.17968 1.15574,26.89983 -4.4367,8.52789 -13.9862,14.33554 -23.57188,14.33554 h -1.56426 v -25.04313 c 0,-13.77372 -0.0593,-25.10245 -0.13182,-25.17494 -0.15319,-0.1532 -3.25489,0.34163 -4.70501,0.75061 l -0.99219,0.27983 v 9.78261 9.7826 l -5.02708,-0.0422 c -2.7649,-0.0232 -5.02709,-0.13859 -5.02709,-0.25639 0,-0.97869 1.55892,-4.76844 2.64736,-6.43577 l 1.32139,-2.02417 v -3.83758 c 0,-4.54287 0.14086,-4.48899 -3.14513,-1.203 -2.48868,2.48868 -4.28931,5.30815 -5.60382,8.77461 -1.50679,5.78188 -1.68406,10.62349 -0.1002,15.39494 1.19195,3.63906 3.30456,6.83503 6.51505,9.85604 l 2.20181,2.07185 0.0732,-3.86578 0.0731,-3.86579 -1.15822,-1.69176 c -1.39098,-2.03173 -2.63828,-5.08319 -2.51615,-6.15562 l 0.0885,-0.77717 4.81614,-0.0436 4.81613,-0.0436 0.0178,8.6258 0.007,15.46718 v 4.65367 l 1.78594,0.28121 c 0.98226,0.15467 2.08359,0.33637 2.44739,0.40378 1.26844,0.23501 7.81908,-0.10249 9.6573,-0.49756 z"
         style="opacity:1;vector-effect:none;fill:url(#linearGradient1174);fill-opacity:1;stroke-width:0.26458338;stroke-linecap:butt;stroke-linejoin:miter;stroke-miterlimit:4;stroke-dasharray:none;stroke-dashoffset:0;stroke-opacity:1" />
      <path
         inkscape:export-ydpi="100"
         inkscape:export-xdpi="100"
         sodipodi:nodetypes="cccccccscccsccccccsscsccc"
         inkscape:connector-curvature="0"
         id="path1010"
         d="m 344.92955,494.02698 0.0787,-3.01458 -2.1664,-1.15261 c -6.25452,-3.32764 -10.8545,-9.83641 -13.19436,-16.36615 -1.49657,-5.80562 -1.98491,-13.33455 3.52147,-21.79608 3.62658,-5.45042 9.26444,-9.45511 15.70605,-11.15634 1.79037,-0.47283 7.03668,-1.03712 7.60715,-0.81821 0.34681,0.13308 0.39594,2.69702 0.39594,20.66545 v 20.51351 h 8.57524 8.57524 l 1.04263,-1.65365 c 1.17401,-1.86202 1.7672,-2.97818 2.02131,-3.80332 l 0.17312,-0.56219 -7.21721,0.033 -7.21721,0.033 -0.0789,-20.10057 c -0.055,-14.03084 -0.16516,-20.15391 -0.36467,-20.27721 -0.73863,-0.4565 -5.53027,-0.83171 -8.78277,-0.68773 -14.36431,0.63587 -26.26461,10.46777 -29.98238,24.77112 -1.0032,3.8596 -1.15552,9.98335 -0.34277,13.78085 1.78285,8.33034 6.03446,15.10554 12.53177,19.97015 2.60781,1.9525 7.62845,4.6033 8.76892,4.62982 0.16379,0.004 0.30105,-1.18003 0.34877,-3.00829 z"
         style="fill:url(#linearGradient1084-7);stroke-width:0.26458338" />
    </g>
  </g>
</svg>
